<svg width="87" height="86" viewBox="0 0 87 86" fill="none" xmlns="http://www.w3.org/2000/svg">
<g clip-path="url(#clip0_167_30999)">
<path opacity="0.952" fill-rule="evenodd" clip-rule="evenodd" d="M35.2461 0.587891C35.3497 0.606486 35.4337 0.662475 35.498 0.755859C35.8857 2.08654 36.3056 3.40231 36.7578 4.70312C38.2726 4.73134 39.7843 4.81533 41.293 4.95508C40.0602 5.85337 38.8845 6.8052 37.7656 7.81055C38.1706 9.0664 38.5625 10.3262 38.9414 11.5898C38.8855 11.6738 38.8294 11.7578 38.7734 11.8418C37.6405 10.9814 36.4928 10.1416 35.3301 9.32227C34.1494 10.1948 32.9458 11.0347 31.7188 11.8418C31.857 10.6629 32.1649 9.48708 32.6426 8.31445C32.7546 8.0345 32.7546 7.75456 32.6426 7.47461C31.4989 6.69387 30.4071 5.85403 29.3672 4.95508C30.8747 4.78741 32.3864 4.73143 33.9023 4.78711C34.2833 3.36415 34.7313 1.96441 35.2461 0.587891Z" fill="#DF4666"/>
<path opacity="0.932" fill-rule="evenodd" clip-rule="evenodd" d="M78.2422 0.587891C78.4352 0.63678 78.5472 0.776753 78.5781 1.00781C78.4621 2.1011 78.3502 3.1929 78.2422 4.2832C79.444 4.61855 80.6198 5.03847 81.7695 5.54297C80.5812 5.99514 79.3773 6.41506 78.1582 6.80273C78.1023 8.0345 78.0462 9.26628 77.9902 10.498C77.2458 9.39921 76.4619 8.33542 75.6387 7.30664C74.5126 7.70745 73.3649 7.9594 72.1953 8.0625C72.9859 7.17749 73.7138 6.25366 74.3789 5.29102C73.7462 4.23663 73.0743 3.20081 72.3633 2.18359C73.4432 2.41262 74.5069 2.74856 75.5547 3.19141C75.7786 3.30339 76.0027 3.30339 76.2266 3.19141C76.8704 2.29644 77.5423 1.42859 78.2422 0.587891Z" fill="#DF4565"/>
<path opacity="0.96" fill-rule="evenodd" clip-rule="evenodd" d="M58.4248 1.76367C60.3559 1.9866 60.9438 2.99441 60.1885 4.78711C59.3871 5.5599 58.5192 5.64388 57.5849 5.03906C56.5155 3.58455 56.7953 2.49276 58.4248 1.76367Z" fill="#7CA4C2"/>
<path opacity="0.939" fill-rule="evenodd" clip-rule="evenodd" d="M68.6699 1.93199C69.5333 1.76602 70.4292 1.71003 71.3574 1.76402C71.4807 3.28623 71.2288 4.74195 70.6016 6.1312C69.7348 7.83681 68.6711 9.40453 67.4102 10.8343C68.0457 8.81145 68.5497 6.73984 68.9219 4.61949C69.0631 3.68041 68.9792 2.78458 68.6699 1.93199Z" fill="#92CEBE"/>
<path opacity="0.934" fill-rule="evenodd" clip-rule="evenodd" d="M49.354 4.45117C51.4731 4.52551 52.1169 5.53333 51.2856 7.47461C50.4439 8.24631 49.576 8.30229 48.6821 7.64258C47.9561 6.86418 47.8722 6.02433 48.4302 5.12305C48.7345 4.87494 49.0424 4.65099 49.354 4.45117Z" fill="#D3D3D3"/>
<path opacity="0.917" fill-rule="evenodd" clip-rule="evenodd" d="M64.8086 4.95529C64.9761 4.95027 65.0881 5.03425 65.1445 5.20724C65.9887 8.55029 65.9048 11.8817 64.8926 15.2014C63.9998 17.4943 62.3482 18.8661 59.9375 19.3166C58.0425 21.4397 55.6909 22.6715 52.8828 23.0119C52.7179 22.552 52.606 22.076 52.5469 21.5842C54.5224 21.2716 56.2581 20.4598 57.7539 19.1487C55.8733 18.2761 54.8376 16.7923 54.6465 14.6975C54.2852 12.285 55.3209 10.8852 57.7539 10.4983C60.0835 10.7279 61.3992 12.0157 61.7012 14.3615C61.849 15.3542 61.7091 16.306 61.2812 17.217C61.3093 17.2729 61.3372 17.329 61.3652 17.385C63.3315 15.4654 64.2832 13.1139 64.2207 10.3303C64.4281 8.7076 64.2323 7.13988 63.6328 5.62717C64.0366 5.40155 64.4286 5.17758 64.8086 4.95529ZM57.418 12.01C58.6638 11.8902 59.5315 12.3941 60.0215 13.5217C60.4802 15.1585 60.1443 16.6142 59.0137 17.8889C57.5675 17.5786 56.7276 16.6828 56.4941 15.2014C56.2652 14.4856 56.2093 13.7578 56.3262 13.0178C56.5674 12.5236 56.9314 12.1877 57.418 12.01Z" fill="#F1B873"/>
<path opacity="0.906" fill-rule="evenodd" clip-rule="evenodd" d="M42.8027 6.29883C43.2507 6.29883 43.6985 6.29883 44.1465 6.29883C44.3704 7.61832 44.2305 8.90607 43.7266 10.1621C42.881 12.181 41.7052 13.9727 40.1992 15.5371C40.8298 13.7446 41.3337 11.8969 41.7109 9.99414C41.8445 8.86578 41.8164 7.746 41.627 6.63477C42.0417 6.52255 42.4335 6.41058 42.8027 6.29883Z" fill="#F1B973"/>
<path opacity="0.928" fill-rule="evenodd" clip-rule="evenodd" d="M47.3394 12.6816C47.5633 12.6816 47.7874 12.6816 48.0113 12.6816C49.1852 18.5511 47.5615 23.4501 43.1402 27.3789C42.2493 28.0174 41.2976 28.5491 40.2847 28.9746C39.9563 28.578 39.8164 28.1301 39.8648 27.6309C44.4001 25.2842 46.7236 21.5329 46.8355 16.377C46.6939 15.2069 46.582 14.0311 46.4996 12.8496C46.8212 12.8974 47.1011 12.8414 47.3394 12.6816Z" fill="#7CA4C3"/>
<path opacity="0.942" fill-rule="evenodd" clip-rule="evenodd" d="M79.4183 13.3534C81.2636 13.211 82.0194 14.0509 81.6858 15.8729C81.1354 16.815 80.3236 17.1229 79.2503 16.7967C77.8679 15.582 77.924 14.4342 79.4183 13.3534Z" fill="#92CDBD"/>
<path opacity="0.919" fill-rule="evenodd" clip-rule="evenodd" d="M35.7461 40.5645C35.4081 40.8388 35.1281 41.1748 34.9062 41.5724C34.5349 41.4677 34.1989 41.2997 33.8984 41.0684C34.055 40.5595 34.2789 40.0836 34.5703 39.6407C34.4769 39.5764 34.421 39.4924 34.4023 39.3888C37.9361 33.932 42.919 30.5447 49.3516 29.2266C52.1978 28.7243 55.0533 28.2763 57.918 27.8829C60.483 27.6066 62.8346 26.7667 64.9727 25.3634C66.8823 23.6755 68.0861 21.5758 68.584 19.0645C68.8195 17.7792 69.0155 16.4915 69.1719 15.2013C69.6667 15.0073 70.1706 14.9793 70.6836 15.1173C70.5319 17.4992 70.0561 19.8228 69.2559 22.088C67.5478 25.7302 64.7204 27.9978 60.7734 28.8907C57.1252 29.4521 53.4859 30.068 49.8555 30.7384C44.5687 31.8255 40.2295 34.429 36.8379 38.5489C36.363 39.1628 35.9992 39.8347 35.7461 40.5645Z" fill="#DF4665"/>
<path opacity="0.891" fill-rule="evenodd" clip-rule="evenodd" d="M34.9102 17.5527C35.5271 18.0576 36.0869 18.6175 36.5898 19.2324C37.2977 18.8209 38.0256 18.513 38.7734 18.3086C38.3932 18.9571 38.0572 19.629 37.7656 20.3242C38.2052 20.9323 38.7091 21.4921 39.2773 22.0039C38.6302 22.0094 37.9863 21.9255 37.3457 21.752C37.2058 21.8079 37.0657 21.864 36.9258 21.9199C36.6325 22.5627 36.2966 23.1785 35.918 23.7676C35.642 23.0084 35.474 22.2244 35.4141 21.416C34.6291 21.2946 33.8452 21.1545 33.0625 20.9961C33.7518 20.5953 34.4798 20.2874 35.2461 20.0723C35.0795 19.2405 34.9676 18.4006 34.9102 17.5527Z" fill="#DF4665"/>
<path opacity="0.933" fill-rule="evenodd" clip-rule="evenodd" d="M80.7656 18.5607C81.9982 18.514 83.174 18.7381 84.293 19.2326C84.0642 20.0368 83.7842 20.8206 83.4531 21.5842C82.5836 21.0443 81.6318 20.7364 80.5977 20.6603C78.5145 20.5537 76.4428 20.6096 74.3828 20.8283C76.3897 19.6838 78.5174 18.9279 80.7656 18.5607Z" fill="#7CA4C3"/>
<path opacity="0.937" fill-rule="evenodd" clip-rule="evenodd" d="M31.0469 36.7012C30.5932 37.664 30.0893 38.6158 29.5352 39.5566C29.0366 39.6759 28.5887 39.536 28.1914 39.1367C28.9395 38.096 29.4434 36.9481 29.7031 35.6934C31.0009 31.8297 31.1969 27.9105 30.291 23.9355C29.5708 22.4099 28.703 20.9822 27.6875 19.6523C28.0184 19.2633 28.4104 18.9554 28.8633 18.7285C31.9684 22.5463 33.0601 26.9135 32.1387 31.8301C31.9349 33.4935 31.5709 35.1172 31.0469 36.7012Z" fill="#92CDBD"/>
<path opacity="0.916" fill-rule="evenodd" clip-rule="evenodd" d="M63.6289 19.7363C64.371 20.2184 65.0429 20.7782 65.6445 21.416C65.3064 22.1759 64.8025 22.8197 64.1328 23.3477C61.8798 24.8449 59.4162 25.7409 56.7422 26.0352C59.0415 24.8426 61.0852 23.3028 62.873 21.416C63.2634 20.9155 63.5154 20.3556 63.6289 19.7363Z" fill="#EEEEEF"/>
<path opacity="0.929" fill-rule="evenodd" clip-rule="evenodd" d="M73.0391 23.2637C75.1541 23.3347 75.7979 24.3425 74.9707 26.2871C73.3789 27.2534 72.2871 26.8614 71.6953 25.1113C71.7816 24.2035 72.2295 23.5875 73.0391 23.2637Z" fill="#D3D3D3"/>
<path opacity="0.928" fill-rule="evenodd" clip-rule="evenodd" d="M35.0762 25.9512C35.9719 25.9512 36.8679 25.9512 37.7637 25.9512C37.8875 27.4715 37.6355 28.9272 37.0078 30.3184C36.1411 32.0239 35.0773 33.5917 33.8164 35.0215C34.5007 33.0116 35.0046 30.94 35.3281 28.8066C35.4439 27.8358 35.3599 26.8841 35.0762 25.9512Z" fill="#92CDBD"/>
<path opacity="0.929" fill-rule="evenodd" clip-rule="evenodd" d="M67.1602 30.3184C67.9489 30.3471 68.7328 30.4311 69.5117 30.5703C69.8945 30.6498 70.2305 30.8177 70.5195 31.0742C70.2882 31.8522 70.0084 32.6081 69.6797 33.3418C68.7426 32.8271 67.7348 32.5193 66.6562 32.418C64.6307 32.3219 62.6151 32.3778 60.6094 32.5859C62.6638 31.4068 64.8474 30.6509 67.1602 30.3184Z" fill="#7CA4C3"/>
<path opacity="0.907" fill-rule="evenodd" clip-rule="evenodd" d="M83.7852 30.4854C83.9619 30.4604 84.1298 30.4883 84.2891 30.5694C84.0527 31.2054 83.8288 31.8492 83.6172 32.5011C84.2022 33.0451 84.8182 33.549 85.4648 34.0128C84.6888 34.1796 83.9051 34.2357 83.1133 34.1807C83.0207 34.9989 82.8247 35.7828 82.5254 36.5323C82.257 35.867 82.005 35.1951 81.7695 34.5167C80.9352 34.3774 80.0954 34.2935 79.25 34.2647C79.8967 33.801 80.5126 33.2971 81.0977 32.753C80.796 32.1215 80.5161 31.4776 80.2578 30.8214C80.3137 30.7654 80.3698 30.7093 80.4258 30.6534C81.0837 31.0243 81.7275 31.4162 82.3574 31.8292C82.8618 31.398 83.3377 30.95 83.7852 30.4854Z" fill="#DF4665"/>
<path opacity="0.904" fill-rule="evenodd" clip-rule="evenodd" d="M54.0554 30.8229C55.0148 30.7915 55.9667 30.8474 56.9108 30.9909C56.9459 31.8514 56.8339 32.6912 56.5749 33.5104C54.5203 32.8988 52.4486 32.871 50.3601 33.4264C49.408 33.5941 48.4842 33.846 47.5886 34.1823C47.4849 34.0229 47.5128 33.883 47.6726 33.7624C49.6233 32.3666 51.7508 31.3868 54.0554 30.8229Z" fill="#F1B873"/>
<path opacity="0.993" fill-rule="evenodd" clip-rule="evenodd" d="M29.7002 35.6927C29.4405 36.9474 28.9366 38.0953 28.1885 39.1361C28.5857 39.5353 29.0337 39.6752 29.5322 39.556C30.0863 38.6152 30.5902 37.6633 31.0439 36.7005C32.2121 37.5325 33.332 38.4284 34.4033 39.388C34.4219 39.4916 34.4779 39.5756 34.5713 39.64C34.2798 40.0829 34.0559 40.5587 33.8994 41.0677C34.1999 41.299 34.5358 41.467 34.9072 41.5716C35.1291 41.174 35.4091 40.8381 35.747 40.5638C38.3175 42.9101 40.837 45.3176 43.3056 47.7864C43.2248 48.4083 43.1128 49.0242 42.9697 49.6341C43.3916 49.8516 43.8396 49.9635 44.3135 49.97C44.2558 49.637 44.3679 49.4129 44.6494 49.2982C46.3973 51.2689 48.077 53.2846 49.6885 55.345C49.4847 55.8028 49.1768 56.1948 48.7646 56.5208C48.8113 56.9659 49.0633 57.3019 49.5205 57.5286C49.8719 57.1751 50.2637 56.8951 50.6963 56.6888C51.6374 58.1788 52.4494 59.7467 53.1318 61.3919C53.2439 61.8958 53.2439 62.3997 53.1318 62.9036C53.0618 63.1146 52.9219 63.2266 52.7119 63.2396C52.0879 63.2525 51.4721 63.1966 50.8642 63.0716C47.7768 61.3857 44.8654 59.4262 42.1299 57.1927C35.5329 51.6328 29.738 45.362 24.7451 38.3802C23.8337 37.0129 23.1338 35.5571 22.6455 34.013C22.603 33.6221 22.715 33.2862 22.9814 33.0052C24.1758 32.7208 25.2957 32.9167 26.3408 33.5931C27.4936 34.2527 28.6134 34.9526 29.7002 35.6927Z" fill="#A72A45"/>
<path opacity="0.997" fill-rule="evenodd" clip-rule="evenodd" d="M22.6445 34.0137C23.1328 35.5578 23.8327 37.0136 24.7441 38.3809C29.737 45.3626 35.5319 51.6334 42.1289 57.1934C35.4626 55.1774 29.5276 51.902 24.3242 47.3672C22.3709 45.4446 20.8592 43.233 19.7891 40.7324C20.7404 38.4936 21.6923 36.254 22.6445 34.0137Z" fill="#DE4665"/>
<path opacity="0.935" fill-rule="evenodd" clip-rule="evenodd" d="M44.1473 34.686C45.9847 34.4239 46.7965 35.2077 46.5829 37.0375C46.0723 38.0626 45.2603 38.4265 44.1473 38.1293C43.2052 37.5789 42.8973 36.7671 43.2235 35.6938C43.4519 35.27 43.7598 34.934 44.1473 34.686Z" fill="#DE4666"/>
<path opacity="0.919" fill-rule="evenodd" clip-rule="evenodd" d="M44.6484 49.2995C44.3669 49.4142 44.2549 49.6383 44.3125 49.9714C43.8387 49.9648 43.3907 49.853 42.9688 49.6354C43.1119 49.0255 43.2239 48.4096 43.3047 47.7878C43.6646 45.1053 44.9244 42.9778 47.084 41.405C48.3354 37.2175 51.1628 35.0898 55.5664 35.0222C57.1325 35.003 58.5882 35.3949 59.9336 36.1979C59.9967 36.7443 59.7727 37.1923 59.2617 37.5417C56.978 36.3666 54.6265 36.2265 52.207 37.1218C50.6394 37.7936 49.5195 38.9135 48.8477 40.4811C50.2903 40.3795 51.746 40.3795 53.2148 40.4811C55.0956 41.1873 55.9914 42.5589 55.9023 44.5964C56.0471 45.5664 55.7112 46.3223 54.8945 46.8639C51.0353 48.055 48.4039 46.7953 47 43.0847C46.3634 43.5726 45.8875 44.1885 45.5723 44.9323C45.1041 46.3565 44.7962 47.8123 44.6484 49.2995ZM49.0156 42.2448C50.4954 42.2023 51.9512 42.3424 53.3828 42.6647C54.4067 43.6438 54.6308 44.7635 54.0547 46.0241C52.2221 46.4754 50.6264 46.0555 49.2676 44.7643C48.808 44.0456 48.5561 43.2617 48.5117 42.4128C48.7286 42.4526 48.8965 42.3967 49.0156 42.2448Z" fill="#D08230"/>
<path opacity="0.937" fill-rule="evenodd" clip-rule="evenodd" d="M74.5497 35.8617C76.3871 35.5997 77.1989 36.3835 76.9852 38.2133C76.5267 39.314 75.7149 39.678 74.5497 39.3051C73.6075 38.7547 73.2997 37.9429 73.6259 36.8696C73.8543 36.4458 74.1622 36.1098 74.5497 35.8617Z" fill="#D0822F"/>
<path opacity="0.897" fill-rule="evenodd" clip-rule="evenodd" d="M64.8086 38.5488C65.0434 39.1169 65.2673 39.7048 65.4805 40.3125C66.1523 40.3684 66.8242 40.4245 67.4961 40.4805C66.9363 40.9284 66.3762 41.3762 65.8164 41.8242C66.1354 42.395 66.2472 42.9829 66.1523 43.5879C65.7519 43.1873 65.3041 42.8513 64.8086 42.5801C64.3047 42.916 63.8008 43.252 63.2969 43.5879C63.2409 43.5598 63.1848 43.532 63.1289 43.5039C63.296 43.0049 63.464 42.501 63.6328 41.9922C63.2698 41.4334 62.822 40.9575 62.2891 40.5645C62.905 40.4524 63.5208 40.3406 64.1367 40.2285C64.3949 39.6772 64.6188 39.1172 64.8086 38.5488Z" fill="#DF4565"/>
<path fill-rule="evenodd" clip-rule="evenodd" d="M19.7891 40.7324C20.8592 43.233 22.3709 45.4446 24.3242 47.3672C29.5276 51.902 35.4626 55.1774 42.1289 57.1934C44.8644 59.4268 47.7758 61.3864 50.8633 63.0723C40.3246 61.6612 30.9183 57.658 22.6445 51.0625C20.7297 49.4025 19.1059 47.5268 17.7734 45.4355C18.4156 43.842 19.0875 42.2744 19.7891 40.7324Z" fill="#F0B773"/>
<path opacity="0.938" fill-rule="evenodd" clip-rule="evenodd" d="M50.6973 56.6904C50.2647 56.8967 49.8729 57.1767 49.5215 57.5303C49.0643 57.3035 48.8123 56.9676 48.7656 56.5224C49.1778 56.1964 49.4857 55.8044 49.6895 55.3467C53.3893 52.031 57.7565 50.3793 62.791 50.3916C66.579 49.543 68.8747 47.2195 69.6777 43.4209C70.2213 43.1788 70.7252 43.2348 71.1895 43.5889C70.2471 47.8623 67.6717 50.5779 63.4629 51.7353C61.7321 51.996 59.9965 52.2201 58.2559 52.4072C55.2704 53.0588 52.7509 54.4865 50.6973 56.6904Z" fill="#7CA4C3"/>
<path opacity="0.924" fill-rule="evenodd" clip-rule="evenodd" d="M62.457 44.7637C63.1202 44.7949 63.764 44.9068 64.3887 45.0996C64.4446 45.8847 64.4167 46.6684 64.3047 47.4512C62.7545 47.1253 61.1867 47.0413 59.6016 47.1992C58.0232 47.4826 56.4555 47.7626 54.8984 48.0391C57.1536 46.2947 59.6731 45.2029 62.457 44.7637Z" fill="#909192"/>
<path opacity="0.996" fill-rule="evenodd" clip-rule="evenodd" d="M17.7734 45.4355C19.1059 47.5268 20.7297 49.4025 22.6445 51.0625C30.9183 57.658 40.3246 61.6612 50.8633 63.0723C51.4712 63.1972 52.0869 63.2532 52.7109 63.2402C46.9795 65.7971 41.2126 68.3166 35.4102 70.7988C35.2981 70.6868 35.1863 70.5749 35.0742 70.4629C37.2875 69.6929 39.4711 68.825 41.625 67.8594C32.3103 66.4557 23.968 62.8724 16.5977 57.1094C15.661 56.2576 14.8212 55.3338 14.0781 54.3379C15.3097 51.3712 16.5415 48.4039 17.7734 45.4355Z" fill="#DF4666"/>
<path opacity="0.926" fill-rule="evenodd" clip-rule="evenodd" d="M81.2656 46.1083C82.4854 46.0122 83.6612 46.1801 84.793 46.6122C84.8711 47.4795 84.7031 48.3194 84.2891 49.1317C83.4195 48.5918 82.4678 48.284 81.4336 48.2079C79.3474 48.0879 77.2759 48.1439 75.2188 48.3758C77.1015 47.2355 79.1171 46.4796 81.2656 46.1083Z" fill="#92CEBE"/>
<path opacity="0.915" fill-rule="evenodd" clip-rule="evenodd" d="M73.3711 52.8266C74.5462 52.7984 75.6661 53.0223 76.7305 53.4985C76.515 54.3134 76.235 55.0974 75.8906 55.85C74.9554 55.3238 73.9476 55.0159 72.8672 54.9262C70.841 54.8221 68.8254 54.878 66.8203 55.0942C68.8756 53.9147 71.0592 53.1588 73.3711 52.8266Z" fill="#EEEEEF"/>
<path opacity="0.997" fill-rule="evenodd" clip-rule="evenodd" d="M14.082 54.3379C14.8251 55.3338 15.665 56.2576 16.6016 57.1094C23.9719 62.8724 32.3142 66.4557 41.6289 67.8594C39.475 68.825 37.2914 69.6929 35.0781 70.4629C26.4948 68.2437 18.8801 64.2684 12.2344 58.5371C12.7182 57.0667 13.3341 55.667 14.082 54.3379Z" fill="#F0B773"/>
<path opacity="0.909" fill-rule="evenodd" clip-rule="evenodd" d="M59.7695 54.3376C61.1659 54.212 62.5096 54.4078 63.8008 54.9255C63.5166 55.7225 63.2646 56.5345 63.0449 57.361C62.239 56.887 61.3711 56.5791 60.4414 56.4372C58.2991 56.2765 56.1716 56.3605 54.0586 56.6892C54.0027 56.6332 53.9466 56.5771 53.8906 56.5212C55.7541 55.49 57.7138 54.7621 59.7695 54.3376Z" fill="#F1B973"/>
<path opacity="0.992" fill-rule="evenodd" clip-rule="evenodd" d="M12.2344 58.5371C18.8801 64.2684 26.4948 68.2437 35.0781 70.4629C35.1902 70.5749 35.302 70.6868 35.4141 70.7988C26.6226 74.4945 17.8321 78.1898 9.04297 81.8848C9.14217 81.7754 9.25416 81.6634 9.37891 81.5488C7.94958 80.7501 6.49384 79.9943 5.01172 79.2812C4.53534 79.0476 4.14342 78.7397 3.83594 78.3574C4.89973 75.782 5.96355 73.2063 7.02734 70.6309C10.9119 73.2456 15.0551 75.4292 19.457 77.1816C21.2054 76.4407 22.941 75.6849 24.6641 74.9141C19.4933 73.3362 14.6781 71.0407 10.2188 68.0273C9.63086 67.6353 9.12695 67.1593 8.70703 66.5996C9.94526 63.9521 11.121 61.2646 12.2344 58.5371Z" fill="#DF4665"/>
<path opacity="0.996" fill-rule="evenodd" clip-rule="evenodd" d="M8.70703 66.5996C9.12695 67.1593 9.63086 67.6353 10.2188 68.0273C14.6781 71.0407 19.4933 73.3362 24.6641 74.9141C22.941 75.6849 21.2054 76.4407 19.457 77.1816C15.0551 75.4292 10.9119 73.2456 7.02734 70.6309C7.00875 70.5272 6.95277 70.4432 6.85938 70.3789C7.46159 69.0909 8.07748 67.8312 8.70703 66.5996Z" fill="#F0B773"/>
<path opacity="0.986" fill-rule="evenodd" clip-rule="evenodd" d="M3.83203 78.3574C4.13951 78.7397 4.53144 79.0476 5.00781 79.2812C6.48994 79.9943 7.94567 80.7501 9.375 81.5488C9.25025 81.6634 9.13826 81.7754 9.03906 81.8848C8.19406 82.3626 7.29822 82.7545 6.35156 83.0605C5.89123 83.0953 5.49931 83.2633 5.17578 83.5645C4.08738 83.3002 3.07956 82.8523 2.15234 82.2207C2.07874 82.2316 2.02274 82.2037 1.98438 82.1367C2.52345 80.8202 3.13934 79.5604 3.83203 78.3574Z" fill="#F0B673"/>
<path opacity="0.927" fill-rule="evenodd" clip-rule="evenodd" d="M2.15625 82.2207C3.08347 82.8523 4.09128 83.3002 5.17969 83.5645C3.79376 84.3341 2.33803 84.922 0.8125 85.3281C1.27725 84.2971 1.72517 83.2614 2.15625 82.2207Z" fill="#DF4866"/>
<path opacity="0.478" fill-rule="evenodd" clip-rule="evenodd" d="M6.35547 83.0605C6.03194 83.3617 5.64002 83.5297 5.17969 83.5645C5.50321 83.2633 5.89513 83.0953 6.35547 83.0605Z" fill="#E66063"/>
</g>
<defs>
<clipPath id="clip0_167_30999">
<rect width="86" height="86" fill="white" transform="translate(0.222656)"/>
</clipPath>
</defs>
</svg>
