<svg width="34" height="10" viewBox="0 0 34 10" fill="none" xmlns="http://www.w3.org/2000/svg">
<path d="M17.5382 3.04203L17.7454 3.38525L18.0386 3.02032C19.0381 1.74196 19.5822 1.44399 20.8223 1.45134C21.8644 1.47047 22.7039 1.96747 23.3172 2.92836C23.3632 2.99972 23.3874 3.02327 23.4183 3.02437L24.1246 3.02511L24.0551 2.882C23.8035 2.41407 23.411 1.94209 23.0082 1.62388C22.7146 1.39175 22.3905 1.20671 22.0458 1.07354C21.3369 0.799473 20.2381 0.759375 19.4541 1.04006C18.7519 1.29169 18.4763 1.56171 18.0139 2.0885C17.8568 2.26729 17.7229 2.46594 17.5463 2.71536L17.4768 2.81542C17.4768 2.81542 17.4334 2.86655 17.4555 2.9129L17.5382 3.04203Z" fill="#B62026"/>
<path d="M29.7514 6.11093C28.3565 5.92589 27.112 6.03735 25.948 6.45158C25.671 6.5498 25.4058 6.67194 25.1251 6.80143C24.9279 6.89229 24.7278 6.98426 24.5177 7.07108C23.6988 7.41062 23.0664 7.62436 22.4584 7.67182C22.4554 7.67218 22.4525 7.67218 22.4495 7.67255C22.6349 7.57102 22.8137 7.45293 22.9818 7.31645C23.9129 6.5601 24.3658 5.72944 24.3658 4.77665C24.3658 4.61994 24.2315 4.51399 24.1057 4.51399L20.768 4.52319L20.7691 5.16917L22.9476 5.1677L23.6672 5.16881L23.5542 5.48334C23.4413 5.79676 23.2806 6.0815 23.0764 6.32945C22.5463 6.97138 21.8683 7.33668 21.0615 7.41504C20.4391 7.47537 19.9737 7.41688 19.5529 7.22485C19.0279 6.98573 18.5791 6.57702 18.2558 6.0425C17.9894 5.6029 17.7566 5.18941 17.5237 4.74207C17.2518 4.2208 16.9406 3.70835 16.6397 3.21246C16.5194 3.01454 16.4072 2.82987 16.2965 2.64446C15.784 1.78253 15.0501 1.21785 14.1146 0.965117C13.7799 0.874989 13.4466 0.829005 13.1247 0.829005C12.3904 0.829005 11.6896 1.06702 11.0414 1.53679C9.75532 2.46751 9.1785 4.12441 9.63834 5.56648C9.94183 6.5178 10.5363 7.2289 11.3673 7.66372C10.7765 7.60744 10.1589 7.39996 9.36538 7.07108C9.15569 6.98426 8.95557 6.89229 8.75839 6.80143C8.47733 6.67194 8.21209 6.5498 7.93509 6.45158C6.77113 6.03735 5.52699 5.92589 4.13201 6.11093C2.73667 6.29597 1.54292 6.71203 0.5 7.37936C0.948805 7.53202 1.27511 7.86605 1.44065 8.35348C1.53225 8.6235 1.56757 8.89573 1.60141 9.15913C1.60215 9.16317 1.60252 9.16722 1.60288 9.1709C1.75776 9.06127 1.91079 8.94834 2.06456 8.83577C2.50859 8.51057 2.96696 8.17396 3.45917 7.89438C4.24568 7.44741 5.06236 7.22227 5.89633 7.22227C6.15715 7.22227 6.41982 7.24471 6.68395 7.28886C7.24569 7.38267 7.80523 7.49082 8.36439 7.59898C9.04312 7.73031 9.74502 7.86605 10.4359 7.97163C10.4359 7.97163 13.4874 8.43552 14.6348 7.74281L14.6326 7.7384C15.4323 7.3021 15.9613 6.24998 16.3873 5.47414C16.448 5.36304 16.4466 5.27071 16.3822 5.15519L16.3583 5.11215C16.259 4.92932 16.2236 4.86641 16.1199 4.67953L16.068 4.58425C16.0165 4.49008 15.9698 4.50406 15.8789 4.50406H13.3553L13.3557 5.17248H15.8256L15.6895 5.41013C15.2892 6.04361 14.8625 6.86176 14.3195 7.11265C13.2155 7.62215 12.3135 7.46213 11.3979 6.84557C10.352 6.14036 10.0099 5.0669 10.2611 3.82312C10.4889 2.69449 11.4354 1.76083 12.5626 1.55224C13.7464 1.33373 14.7249 1.68688 15.4713 2.60289C15.6773 2.85562 15.8399 3.14918 15.9974 3.43318C16.0529 3.53324 16.1 3.61785 16.1482 3.70136C16.2928 3.95188 16.4363 4.20902 16.5757 4.45771C16.7699 4.80571 16.9903 5.20007 17.2114 5.57199C17.4637 5.99542 17.7242 6.43282 18.0325 6.81393C18.39 7.25575 18.8293 7.57948 19.3406 7.79137C19.5904 7.92638 19.9491 8.00915 20.3585 8.05404C20.3618 8.0544 20.3655 8.0544 20.3688 8.05477C21.6788 8.19603 23.4472 7.97163 23.4472 7.97163C24.1381 7.86605 24.84 7.73031 25.5187 7.59898C26.0782 7.49082 26.6374 7.38267 27.1995 7.28886C27.4633 7.24471 27.7259 7.22227 27.9871 7.22227C28.8211 7.22227 29.6374 7.44741 30.4239 7.89438C30.9165 8.17396 31.3749 8.51057 31.8185 8.83577C31.9723 8.94834 32.1257 9.06127 32.2806 9.1709C32.2809 9.16722 32.2813 9.16317 32.282 9.15913C32.3159 8.89573 32.3508 8.6235 32.4424 8.35348C32.6083 7.86605 32.9343 7.53202 33.3835 7.37936C32.3402 6.71203 31.1468 6.29597 29.7514 6.11093Z" fill="#B62026"/>
</svg>
