<svg width="151" height="150" viewBox="0 0 151 150" fill="none" xmlns="http://www.w3.org/2000/svg">
<g clip-path="url(#clip0_0_6562)">
<path opacity="0.975" fill-rule="evenodd" clip-rule="evenodd" d="M82.9707 6.88489C86.3213 6.19595 88.4208 7.46547 89.2695 10.6935C89.539 13.5475 89.4415 16.3795 88.9765 19.1896C87.2058 22.156 84.8131 22.7908 81.7988 21.0939C80.9295 20.4785 80.3925 19.6484 80.1875 18.6036C79.992 15.7716 79.992 12.9396 80.1875 10.1075C80.6559 8.61517 81.5837 7.54094 82.9707 6.88489Z" fill="#1D3461"/>
<path opacity="0.964" fill-rule="evenodd" clip-rule="evenodd" d="M66.8575 22.1189C69.7889 22.0701 72.7186 22.1189 75.6465 22.2654C78.8542 24.0098 79.5867 26.5001 77.8438 29.7361C77.005 30.6194 75.9796 31.1567 74.7676 31.3474C72.3263 31.5428 69.8847 31.5428 67.4434 31.3474C63.5689 30.0056 62.5435 27.5154 64.3672 23.8767C65.0475 23.0284 65.8775 22.4425 66.8575 22.1189Z" fill="#1D3461"/>
<path opacity="0.964" fill-rule="evenodd" clip-rule="evenodd" d="M93.8105 22.1191C97.056 21.9927 100.279 22.1392 103.479 22.5585C105.918 24.3666 106.455 26.6615 105.09 29.4433C104.206 30.4956 103.083 31.1302 101.721 31.3476C99.3769 31.543 97.0332 31.543 94.6894 31.3476C91.4302 30.6427 90.1118 28.6408 90.7344 25.3417C91.3262 23.8227 92.3515 22.7485 93.8105 22.1191Z" fill="#1D3461"/>
<path fill-rule="evenodd" clip-rule="evenodd" d="M150.354 36.475C150.354 38.6234 150.354 40.772 150.354 42.9203C149.673 45.7853 148.452 48.422 146.691 50.8305C122.951 74.6198 99.1716 98.3503 75.3535 122.022C75.3535 105.42 75.3535 88.8189 75.3535 72.2172C90.4312 56.9931 105.568 41.8073 120.764 26.6606C127.838 21.1949 135.26 20.7066 143.029 25.1957C146.846 28.0806 149.288 31.8405 150.354 36.475Z" fill="#93D632"/>
<path opacity="0.978" fill-rule="evenodd" clip-rule="evenodd" d="M32.5801 30.9082C35.3557 30.3674 37.3575 31.3442 38.5859 33.8379C38.8593 37.1795 38.7617 40.4997 38.293 43.7989C35.5725 46.9207 32.8382 46.9207 30.0899 43.7989C29.9923 43.5059 29.8944 43.2129 29.7969 42.9199C29.6016 39.8927 29.6016 36.8652 29.7969 33.8379C30.3893 32.5137 31.3171 31.5372 32.5801 30.9082Z" fill="#1D3461"/>
<path opacity="0.973" fill-rule="evenodd" clip-rule="evenodd" d="M83.2636 31.4943C86.4007 31.0337 88.4029 32.3035 89.2695 35.3029C89.4649 37.842 89.4649 40.3809 89.2695 42.9201C87.9957 46.5034 85.603 47.5288 82.0917 45.9962C81.1047 45.3034 80.4699 44.3755 80.1875 43.213C79.992 40.3809 79.992 37.5491 80.1875 34.7169C80.6887 33.0936 81.7141 32.0193 83.2636 31.4943Z" fill="#1D3461"/>
<path opacity="0.961" fill-rule="evenodd" clip-rule="evenodd" d="M16.4668 46.1422C19.6148 46.0165 22.7397 46.163 25.8418 46.5816C28.1918 48.2348 28.8266 50.4321 27.7461 53.1734C26.932 54.3781 25.8089 55.1105 24.377 55.3707C21.8379 55.5661 19.2989 55.5661 16.7598 55.3707C13.2896 54.0441 12.2642 51.6514 13.6836 48.1929C14.4245 47.2012 15.3523 46.5177 16.4668 46.1422Z" fill="#1D3461"/>
<path opacity="0.961" fill-rule="evenodd" clip-rule="evenodd" d="M43.4199 46.1423C46.2535 46.0936 49.0856 46.1423 51.916 46.2887C55.0215 47.4952 56.0469 49.6924 54.9922 52.8805C54.2729 54.2425 53.15 55.0728 51.623 55.3708C49.0839 55.5662 46.545 55.5662 44.0058 55.3708C40.8693 54.4233 39.6485 52.3236 40.3437 49.0719C40.9607 47.6238 41.9861 46.6473 43.4199 46.1423Z" fill="#1D3461"/>
<path opacity="0.977" fill-rule="evenodd" clip-rule="evenodd" d="M32.8731 55.5172C35.5353 55.0657 37.4396 56.0425 38.5859 58.4469C38.7814 61.572 38.7814 64.6968 38.5859 67.8219C36.7657 70.925 34.2755 71.5599 31.1152 69.7262C30.6398 69.1168 30.2003 68.4822 29.7969 67.8219C29.6016 64.6968 29.6016 61.572 29.7969 58.4469C30.4139 56.9987 31.4393 56.0223 32.8731 55.5172Z" fill="#1D3461"/>
<path opacity="0.995" fill-rule="evenodd" clip-rule="evenodd" d="M75.3535 72.2168C75.3535 88.8185 75.3535 105.42 75.3535 122.021C69.9438 127.578 64.475 133.095 58.9473 138.574C50.3173 144.393 41.8212 144.198 33.459 137.988C23.8399 128.369 14.2207 118.75 4.60156 109.131C2.55107 106.592 1.13505 103.76 0.353516 100.635C0.353516 98.3886 0.353516 96.1427 0.353516 93.8965C3.50724 83.4788 10.5385 78.8402 21.4473 79.9805C24.2882 80.5225 26.8272 81.6943 29.0645 83.4961C34.8749 89.3065 40.6856 95.1173 46.4961 100.928C56.0765 91.2984 65.6958 81.728 75.3535 72.2168Z" fill="#BCF052"/>
<path opacity="0.976" fill-rule="evenodd" clip-rule="evenodd" d="M120.764 97.7047C123.426 97.2532 125.33 98.23 126.477 100.634C126.672 103.759 126.672 106.884 126.477 110.009C124.656 113.113 122.166 113.747 119.006 111.914C118.44 111.252 118.001 110.52 117.687 109.716C117.492 106.787 117.492 103.857 117.687 100.927C118.181 99.3113 119.206 98.2373 120.764 97.7047Z" fill="#1D3461"/>
<path opacity="0.961" fill-rule="evenodd" clip-rule="evenodd" d="M104.357 112.939C107.191 112.89 110.023 112.939 112.853 113.086C115.044 113.803 116.216 115.316 116.369 117.627C116.093 119.991 114.823 121.505 112.56 122.168C109.924 122.363 107.287 122.363 104.65 122.168C101.941 121.392 100.72 119.586 100.988 116.748C101.451 114.87 102.574 113.601 104.357 112.939Z" fill="#1D3461"/>
<path opacity="0.96" fill-rule="evenodd" clip-rule="evenodd" d="M131.604 112.939C134.34 112.89 137.074 112.939 139.807 113.086C143.149 114.515 144.076 116.908 142.59 120.263C141.897 121.25 140.969 121.885 139.807 122.168C137.072 122.363 134.338 122.363 131.604 122.168C128.775 121.152 127.652 119.15 128.234 116.162C128.828 114.524 129.951 113.45 131.604 112.939Z" fill="#1D3461"/>
<path opacity="0.976" fill-rule="evenodd" clip-rule="evenodd" d="M120.764 122.314C123.427 121.88 125.331 122.856 126.477 125.244C126.672 128.369 126.672 131.494 126.477 134.619C125.032 137.348 122.835 138.178 119.885 137.109C118.842 136.555 118.11 135.725 117.687 134.619C117.492 131.592 117.492 128.564 117.687 125.537C118.181 123.921 119.206 122.847 120.764 122.314Z" fill="#1D3461"/>
</g>
<defs>
<clipPath id="clip0_0_6562">
<rect width="150" height="150" fill="white" transform="translate(0.5)"/>
</clipPath>
</defs>
</svg>
