<svg width="61" height="265" viewBox="0 0 61 265" fill="none" xmlns="http://www.w3.org/2000/svg">
<path d="M34.4659 -9.74038C37.24 -10.6852 38.4599 -10.7248 39.5305 -8.94278C44.8255 -0.127556 49.8918 8.85733 55.7724 17.2805C59.4255 22.5131 58.9767 26.3408 55.5269 31.4483C49.7851 39.9498 44.9619 49.0597 39.4105 58.4932C46.1512 69.5962 53.0654 80.9824 60.1008 92.5708C56.4964 98.7889 53.1173 104.737 49.6178 110.615C46.8144 115.327 43.9082 119.98 40.9547 124.601C39.8907 126.265 39.8985 127.67 40.9638 129.341C46.1224 137.43 51.2304 145.552 56.2842 153.706C57.6406 155.896 58.7414 158.24 60.1206 160.812C54.9165 172.982 46.2778 183.447 40.3237 195.659C43.8846 201.486 47.4471 207.307 51.0024 213.135C53.8584 217.817 56.6592 222.534 59.5777 227.178C60.7448 229.036 60.5493 230.706 59.4821 232.46C53.6894 241.977 47.9209 251.51 42.106 261.014C41.3248 262.291 40.324 263.438 39.4874 264.562C36.8182 263.811 36.437 262.611 37.6338 260.65C41.2046 254.801 44.7022 248.908 48.2423 243.04C50.9794 238.503 53.7378 233.977 56.5171 229.397C50.8465 220.452 44.997 211.976 39.955 203.052C35.3087 194.829 34.5537 196.453 39.8714 187.891C45.2979 179.154 50.4742 170.264 56.0238 161.001C49.0954 149.844 42.0681 138.527 34.9197 127.017C41.7292 115.669 48.588 104.24 55.5684 92.6071C48.5509 81.2179 41.5454 69.8488 34.4952 58.4057C41.3547 47.0751 48.0944 35.9415 55.0406 24.4668C49.0043 12.9381 40.825 2.33019 34.4659 -9.74038Z" fill="#222A40" fill-opacity="0.12"/>
<path d="M26.0317 24.3804C24.487 27.1273 22.8913 30.1302 21.1409 33.041C16.6371 40.5286 12.0546 47.9691 7.52292 55.4404C6.19083 57.6366 5.98654 59.518 7.62737 62.0258C13.3502 70.7734 18.688 79.7675 24.1369 88.6896C24.9369 90.0007 25.5447 91.4273 26.3417 92.9981C23.3906 98.1537 20.4723 103.381 17.428 108.537C14.2046 113.995 10.9211 119.42 7.5421 124.785C6.33749 126.697 6.69605 128.108 7.83706 129.938C13.9085 139.682 19.8219 149.524 25.7784 159.338C26.1281 159.915 26.3803 160.551 26.7963 161.4C23.4058 167.283 20.0193 173.23 16.5606 179.137C13.9641 183.569 11.3565 188 8.59689 192.332C7.02102 194.806 7.05902 196.923 8.65917 199.42C14.4857 208.508 20.1606 217.69 25.851 226.862C26.4682 227.856 26.814 229.015 27.3037 230.138C21.0108 240.699 14.803 251.146 8.54706 261.566C7.93962 262.576 7.1736 263.63 6.20922 264.246C5.56107 264.659 4.43309 264.335 2.66657 264.346C8.50343 251.671 16.9363 241.357 22.9027 229.484C15.8643 218.17 8.82522 206.856 1.77009 195.517C8.73373 184.02 15.5594 172.752 22.6117 161.109C15.5899 149.932 8.50103 138.649 1.28349 127.161C8.19634 115.805 15.047 104.551 22.1882 92.82C15.2575 81.73 8.19707 70.4316 0.874855 58.7152C7.66173 47.5933 14.5236 36.3476 21.6449 24.678C15.5132 13.2577 7.68521 2.45465 1.0553 -9.2285C4.528 -10.1904 5.17908 -9.97518 6.69048 -7.65301C8.46646 -4.92493 10.2637 -2.20879 11.933 0.582081C16.5895 8.36763 21.1844 16.1884 26.0317 24.3804Z" fill="#222A40" fill-opacity="0.12"/>
<path d="M-10.9709 161.422C-18.0287 150.085 -24.9961 138.892 -32.1453 127.408C-25.2108 115.982 -18.2936 104.585 -11.2859 93.0408C-18.3136 81.8079 -25.3058 70.6333 -32.5712 59.0208C-25.7514 47.7022 -18.863 36.2681 -11.8669 24.6569C-15.3738 18.8823 -18.9178 13.2449 -22.2566 7.49304C-25.4751 1.94973 -29.9097 -2.94633 -32.065 -9.24018C-28.9447 -10.9302 -27.7464 -8.92781 -26.6721 -7.30396C-24.6877 -4.30474 -22.9368 -1.1541 -21.081 1.92816C-17.0991 8.53885 -13.1025 15.1412 -9.13714 21.7611C-8.52719 22.7791 -8.04419 23.8719 -7.54906 24.8404C-13.7971 35.3474 -19.93 45.6527 -26.0528 55.9635C-27.2841 58.0375 -27.3378 59.7972 -25.8801 62.105C-19.4701 72.2496 -13.3701 82.5872 -7.01886 93.0858C-13.0764 103.193 -19.1265 113.334 -25.232 123.441C-26.7906 126.022 -26.9395 128.053 -25.0759 130.916C-18.9959 140.251 -13.4252 149.914 -7.67145 159.458C-7.32175 160.038 -7.08151 160.683 -6.72425 161.438C-9.6651 166.609 -12.5659 171.848 -15.6027 177.009C-18.8187 182.472 -22.0763 187.916 -25.4987 193.253C-26.9011 195.44 -26.125 197.208 -25.0636 198.994C-23.2244 202.086 -21.2069 205.074 -19.3354 208.148C-15.0547 215.181 -10.8189 222.24 -6.35502 229.636C-7.01375 231.014 -7.697 232.765 -8.63956 234.366C-13.9517 243.379 -19.2981 252.373 -24.7094 261.328C-25.4831 262.609 -26.5902 263.732 -27.7156 264.738C-28.0074 264.999 -29.033 264.683 -29.5628 264.37C-29.8787 264.183 -30.1282 263.392 -29.9883 263.032C-29.3705 261.439 -28.7511 259.813 -27.8621 258.362C-23.1171 250.61 -18.2777 242.915 -13.5013 235.184C-12.5098 233.578 -11.6434 231.897 -10.5917 230.025C-13.7086 224.932 -16.8156 219.807 -19.9714 214.711C-23.2194 209.465 -26.4297 204.193 -29.8249 199.041C-31.4656 196.55 -31.2119 194.585 -29.6316 192.095C-23.5678 182.543 -17.7449 172.841 -11.8442 163.188C-11.4951 162.616 -11.247 161.985 -10.9709 161.422Z" fill="#222A40" fill-opacity="0.12"/>
</svg>
