<svg width="18" height="19" viewBox="0 0 18 19" fill="none" xmlns="http://www.w3.org/2000/svg">
<path d="M3.51525 5.56937L5.1 15.1416C5.17249 15.5798 5.39819 15.9781 5.7369 16.2654C6.07561 16.5528 6.50533 16.7105 6.9495 16.7106H9.4605M14.484 5.56937L12.9 15.1416C12.8275 15.5798 12.6018 15.9781 12.2631 16.2654C11.9244 16.5528 11.4947 16.7105 11.0505 16.7106H8.5395M7.5165 9.24663V13.0334M10.4835 9.24663V13.0334M2.0625 5.56937H15.9375M11.0828 5.56937V4.23438C11.0828 3.93601 10.9642 3.64986 10.7532 3.43888C10.5423 3.2279 10.2561 3.10938 9.95775 3.10938H8.04225C7.74388 3.10938 7.45773 3.2279 7.24676 3.43888C7.03578 3.64986 6.91725 3.93601 6.91725 4.23438V5.56937H11.0828Z" stroke="white" stroke-width="1.5" stroke-linecap="round" stroke-linejoin="round"/>
</svg>
