<svg width="18" height="18" viewBox="0 0 18 18" fill="none" xmlns="http://www.w3.org/2000/svg">
<path d="M13.8594 9.00086C13.2302 8.47341 12.4302 8.19343 11.6094 8.21336H6.33315C6.09258 8.21943 5.85326 8.1769 5.62952 8.08832C5.40577 7.99973 5.2022 7.86691 5.03099 7.6978C4.85979 7.52869 4.72446 7.32678 4.63312 7.10414C4.54178 6.88151 4.4963 6.64273 4.4994 6.40211C4.49353 6.30845 4.49353 6.21452 4.4994 6.12086C4.57034 5.69089 4.79579 5.30161 5.13344 5.0261C5.47109 4.7506 5.89769 4.60783 6.33315 4.62461H11.5307C11.9546 4.62424 12.3649 4.77447 12.6884 5.04851C13.0119 5.32256 13.2276 5.7026 13.2969 6.12086H14.9844C14.9138 5.25341 14.5193 4.44431 13.8794 3.85443C13.2394 3.26454 12.401 2.93706 11.5307 2.93711H9.75315V0.349609H8.3469V2.93711H6.33315C5.46283 2.93706 4.62436 3.26454 3.98445 3.85443C3.34454 4.44431 2.95004 5.25341 2.8794 6.12086C2.87353 6.21452 2.87353 6.30845 2.8794 6.40211C2.8794 6.85566 2.96873 7.30477 3.1423 7.7238C3.31587 8.14283 3.57027 8.52357 3.89098 8.84428C4.53868 9.49198 5.41716 9.85586 6.33315 9.85586H11.6656C11.9043 9.84985 12.1418 9.89168 12.364 9.97888C12.5862 10.0661 12.7888 10.1969 12.9597 10.3636C13.1306 10.5303 13.2664 10.7295 13.3591 10.9495C13.4518 11.1695 13.4995 11.4059 13.4994 11.6446C13.5103 11.7719 13.5103 11.8998 13.4994 12.0271C13.4101 12.4229 13.1888 12.7766 12.8719 13.0301C12.5551 13.2836 12.1614 13.4219 11.7556 13.4221H6.46815C6.06236 13.4219 5.66872 13.2836 5.35185 13.0301C5.03498 12.7766 4.81372 12.4229 4.7244 12.0271H3.02565C3.12233 12.8724 3.52661 13.6525 4.16147 14.2189C4.79632 14.7853 5.61736 15.0983 6.46815 15.0984H8.3469V17.6521H9.75315V15.0984H11.6656C12.5164 15.0983 13.3375 14.7853 13.9723 14.2189C14.6072 13.6525 15.0115 12.8724 15.1082 12.0271V11.6446C15.1068 11.1393 14.9942 10.6405 14.7784 10.1836C14.5626 9.72666 14.2488 9.32287 13.8594 9.00086Z" fill="#B62026"/>
</svg>
