<svg width="19" height="16" viewBox="0 0 19 16" fill="none" xmlns="http://www.w3.org/2000/svg">
<path fill-rule="evenodd" clip-rule="evenodd" d="M9.5 4.78516C8.6712 4.78516 7.87634 5.1144 7.29029 5.70045C6.70424 6.2865 6.375 7.08135 6.375 7.91016C6.375 8.73896 6.70424 9.53381 7.29029 10.1199C7.87634 10.7059 8.6712 11.0352 9.5 11.0352C10.3288 11.0352 11.1237 10.7059 11.7097 10.1199C12.2958 9.53381 12.625 8.73896 12.625 7.91016C12.625 7.08135 12.2958 6.2865 11.7097 5.70045C11.1237 5.1144 10.3288 4.78516 9.5 4.78516ZM7.625 7.91016C7.625 7.41288 7.82254 6.93596 8.17417 6.58433C8.52581 6.2327 9.00272 6.03516 9.5 6.03516C9.99728 6.03516 10.4742 6.2327 10.8258 6.58433C11.1775 6.93596 11.375 7.41288 11.375 7.91016C11.375 8.40744 11.1775 8.88435 10.8258 9.23598C10.4742 9.58761 9.99728 9.78516 9.5 9.78516C9.00272 9.78516 8.52581 9.58761 8.17417 9.23598C7.82254 8.88435 7.625 8.40744 7.625 7.91016Z" fill="#222A40"/>
<path fill-rule="evenodd" clip-rule="evenodd" d="M9.4974 0.617188C5.73573 0.617188 3.20156 2.87052 1.73073 4.78135L1.7049 4.81552C1.37156 5.24802 1.06573 5.64552 0.858229 6.11552C0.635729 6.61969 0.539062 7.16885 0.539062 7.90885C0.539062 8.64885 0.635729 9.19802 0.858229 9.70219C1.06656 10.1722 1.3724 10.5705 1.7049 11.0022L1.73156 11.0364C3.20156 12.9472 5.73573 15.2005 9.4974 15.2005C13.2591 15.2005 15.7932 12.9472 17.2641 11.0364L17.2899 11.0022C17.6232 10.5705 17.9291 10.1722 18.1366 9.70219C18.3591 9.19802 18.4557 8.64885 18.4557 7.90885C18.4557 7.16885 18.3591 6.61969 18.1366 6.11552C17.9282 5.64552 17.6224 5.24802 17.2899 4.81552L17.2632 4.78135C15.7932 2.87052 13.2591 0.617188 9.4974 0.617188ZM2.7224 5.54385C4.07906 3.77969 6.28906 1.86719 9.4974 1.86719C12.7057 1.86719 14.9149 3.77969 16.2724 5.54385C16.6391 6.01885 16.8524 6.30219 16.9932 6.62052C17.1249 6.91885 17.2057 7.28302 17.2057 7.90885C17.2057 8.53469 17.1249 8.89885 16.9932 9.19719C16.8524 9.51552 16.6382 9.79885 16.2732 10.2739C14.9141 12.038 12.7057 13.9505 9.4974 13.9505C6.28906 13.9505 4.0799 12.038 2.7224 10.2739C2.35573 9.79885 2.1424 9.51552 2.00156 9.19719C1.8699 8.89885 1.78906 8.53469 1.78906 7.90885C1.78906 7.28302 1.8699 6.91885 2.00156 6.62052C2.1424 6.30219 2.3574 6.01885 2.7224 5.54385Z" fill="#222A40"/>
</svg>
