<svg width="16" height="16" viewBox="0 0 16 16" fill="none" xmlns="http://www.w3.org/2000/svg">
<path d="M3.875 2.75C3.57663 2.75 3.29048 2.86853 3.0795 3.0795C2.86853 3.29048 2.75 3.57663 2.75 3.875V12.125C2.75 12.4234 2.86853 12.7095 3.0795 12.9205C3.29048 13.1315 3.57663 13.25 3.875 13.25H12.125C12.4234 13.25 12.7095 13.1315 12.9205 12.9205C13.1315 12.7095 13.25 12.4234 13.25 12.125V9.625C13.25 9.45924 13.3158 9.30027 13.4331 9.18306C13.5503 9.06585 13.7092 9 13.875 9C14.0408 9 14.1997 9.06585 14.3169 9.18306C14.4342 9.30027 14.5 9.45924 14.5 9.625V12.125C14.5 12.7549 14.2498 13.359 13.8044 13.8044C13.359 14.2498 12.7549 14.5 12.125 14.5H3.875C3.24511 14.5 2.64102 14.2498 2.19562 13.8044C1.75022 13.359 1.5 12.7549 1.5 12.125V3.875C1.5 3.24511 1.75022 2.64102 2.19562 2.19562C2.64102 1.75022 3.24511 1.5 3.875 1.5H6.375C6.54076 1.5 6.69973 1.56585 6.81694 1.68306C6.93415 1.80027 7 1.95924 7 2.125C7 2.29076 6.93415 2.44973 6.81694 2.56694C6.69973 2.68415 6.54076 2.75 6.375 2.75H3.875ZM9 2.125C9 1.78 9.28 1.5 9.625 1.5H13.875C14.22 1.5 14.5 1.78 14.5 2.125V6.375C14.5 6.54076 14.4342 6.69973 14.3169 6.81694C14.1997 6.93415 14.0408 7 13.875 7C13.7092 7 13.5503 6.93415 13.4331 6.81694C13.3158 6.69973 13.25 6.54076 13.25 6.375V3.634L10.067 6.817C10.009 6.87504 9.94005 6.92109 9.86421 6.9525C9.78837 6.98391 9.70709 7.00008 9.625 7.00008C9.54291 7.00008 9.46163 6.98391 9.38579 6.9525C9.30995 6.92109 9.24104 6.87504 9.183 6.817C9.12496 6.75896 9.07891 6.69005 9.0475 6.61421C9.01609 6.53837 8.99992 6.45709 8.99992 6.375C8.99992 6.29291 9.01609 6.21163 9.0475 6.13579C9.07891 6.05995 9.12496 5.99104 9.183 5.933L12.366 2.75H9.625C9.28 2.75 9 2.47 9 2.125Z" fill="white"/>
</svg>
