<svg width="36" height="36" viewBox="0 0 36 36" fill="none" xmlns="http://www.w3.org/2000/svg">
<path d="M16.5 13.5H33M3 16.5L7.2105 11.7645C7.77342 11.131 8.46414 10.624 9.23718 10.2768C10.0102 9.92954 10.8481 9.75001 11.6955 9.75H12M3 29.25H11.25L17.25 24.75C17.25 24.75 18.465 23.9295 20.25 22.5C24 19.5 20.25 14.751 16.5 17.25C13.446 19.2855 10.5 21 10.5 21" stroke="#B62026" stroke-linecap="round" stroke-linejoin="round"/>
<path d="M12 20.25V10.5C12 9.70435 12.3161 8.94129 12.8787 8.37868C13.4413 7.81607 14.2044 7.5 15 7.5H30C30.7956 7.5 31.5587 7.81607 32.1213 8.37868C32.6839 8.94129 33 9.70435 33 10.5V19.5C33 20.2956 32.6839 21.0587 32.1213 21.6213C31.5587 22.1839 30.7956 22.5 30 22.5H20.25" stroke="#B62026"/>
</svg>
