<svg width="21" height="18" viewBox="0 0 21 18" fill="none" xmlns="http://www.w3.org/2000/svg">
<path d="M11.7586 -0.000416109C6.66857 -0.140416 2.49857 3.94958 2.49857 8.99958H0.708566C0.258566 8.99958 0.0385657 9.53958 0.358566 9.84958L3.14857 12.6496C3.34857 12.8496 3.65857 12.8496 3.85857 12.6496L6.64857 9.84958C6.71767 9.77909 6.76436 9.68972 6.78275 9.59273C6.80114 9.49574 6.79041 9.39548 6.75191 9.30458C6.71341 9.21368 6.64887 9.13621 6.56641 9.08193C6.48396 9.02766 6.38728 8.999 6.28857 8.99958H4.49857C4.49857 5.09958 7.67857 1.94958 11.5986 1.99958C15.3186 2.04958 18.4486 5.17958 18.4986 8.89958C18.5486 12.8096 15.3986 15.9996 11.4986 15.9996C9.88857 15.9996 8.39857 15.4496 7.21857 14.5196C7.02703 14.3687 6.78671 14.2935 6.54333 14.3082C6.29995 14.323 6.07048 14.4267 5.89857 14.5996C5.47857 15.0196 5.50857 15.7296 5.97857 16.0896C7.54977 17.3319 9.49556 18.0052 11.4986 17.9996C16.5486 17.9996 20.6386 13.8296 20.4986 8.73958C20.3686 4.04958 16.4486 0.129584 11.7586 -0.000416109ZM11.2486 4.99958C10.8386 4.99958 10.4986 5.33958 10.4986 5.74958V9.42958C10.4986 9.77958 10.6886 10.1096 10.9886 10.2896L14.1086 12.1396C14.4686 12.3496 14.9286 12.2296 15.1386 11.8796C15.3486 11.5196 15.2286 11.0596 14.8786 10.8496L11.9986 9.13958V5.73958C11.9986 5.33958 11.6586 4.99958 11.2486 4.99958Z" fill="#222A40"/>
</svg>
