<svg width="20" height="20" viewBox="0 0 20 20" fill="none" xmlns="http://www.w3.org/2000/svg">
<path d="M12.7699 18.3327C11.4988 18.3327 10.3774 17.961 9.40573 17.2177C8.43406 16.4743 7.77823 15.521 7.43823 14.3577C7.86045 14.3638 8.25962 14.3332 8.63573 14.266C9.01128 14.1988 9.38073 14.0905 9.74406 13.941H14.0582C14.0827 13.7293 14.1013 13.5224 14.1141 13.3202C14.1263 13.1185 14.1324 12.9118 14.1324 12.7002C14.1324 12.5274 14.1263 12.346 14.1141 12.156C14.1013 11.966 14.0827 11.781 14.0582 11.601H12.8616C12.966 11.4682 13.0641 11.3352 13.1557 11.2018C13.2474 11.0685 13.3374 10.9238 13.4257 10.7677H17.0357C16.758 10.1905 16.3818 9.68685 15.9074 9.25685C15.4335 8.82685 14.8891 8.5074 14.2741 8.29852C14.3013 8.15963 14.3227 8.01907 14.3382 7.87685C14.3538 7.73463 14.3599 7.58879 14.3566 7.43935C15.5188 7.77879 16.4716 8.43435 17.2149 9.40602C17.9588 10.3793 18.3307 11.5013 18.3307 12.7718C18.3307 14.3163 17.7902 15.6293 16.7091 16.711C15.6274 17.7921 14.3143 18.3327 12.7699 18.3327ZM11.7524 17.3293C11.5163 16.9127 11.3174 16.4924 11.1557 16.0685C10.9935 15.6441 10.8674 15.213 10.7774 14.7752H8.5199C8.8199 15.4318 9.25184 15.9874 9.81573 16.4418C10.3796 16.8963 11.0252 17.1921 11.7524 17.3293ZM12.7699 17.4452C13.0643 17.0324 13.303 16.6024 13.4857 16.1552C13.668 15.7074 13.8113 15.2474 13.9157 14.7752H11.6241C11.7291 15.2474 11.8707 15.7071 12.0491 16.1543C12.2268 16.6021 12.4671 17.033 12.7699 17.4452ZM13.7874 17.3293C14.5152 17.1916 15.1635 16.8957 15.7324 16.4418C16.3013 15.988 16.7357 15.4324 17.0357 14.7752H14.7582C14.6571 15.213 14.5291 15.6441 14.3741 16.0685C14.2191 16.4924 14.0235 16.9127 13.7874 17.3293ZM14.8916 13.9418H17.3499C17.3988 13.7602 17.4357 13.5713 17.4607 13.3752C17.4852 13.1791 17.4974 12.978 17.4974 12.7718C17.4974 12.5657 17.4852 12.3646 17.4607 12.1685C17.4363 11.9724 17.3993 11.7835 17.3499 11.6018H14.8916C14.916 11.7813 14.9343 11.966 14.9466 12.156C14.9588 12.3449 14.9649 12.5293 14.9649 12.7093C14.9649 12.9193 14.9588 13.1249 14.9466 13.326C14.9343 13.526 14.916 13.7313 14.8916 13.9418ZM7.22573 12.7877C5.68128 12.7877 4.36823 12.2471 3.28656 11.166C2.2049 10.0849 1.66406 8.77213 1.66406 7.22768C1.66406 5.68324 2.20462 4.37018 3.28573 3.28852C4.36684 2.20685 5.67962 1.66602 7.22406 1.66602C8.76851 1.66602 10.0816 2.20657 11.1632 3.28768C12.2449 4.36879 12.7857 5.68157 12.7857 7.22602C12.7857 8.77046 12.2452 10.0835 11.1641 11.1652C10.083 12.2468 8.77017 12.7877 7.22573 12.7877ZM7.22823 11.9543C8.53267 11.9543 9.64628 11.4921 10.5691 10.5677C11.4913 9.64324 11.9524 8.52852 11.9524 7.22352C11.9524 5.91907 11.4902 4.80574 10.5657 3.88352C9.64073 2.96074 8.52601 2.49935 7.22156 2.49935C5.91712 2.49935 4.80351 2.96157 3.88073 3.88602C2.95851 4.81157 2.4974 5.92629 2.4974 7.23018C2.4974 8.53407 2.95962 9.64768 3.88406 10.571C4.80906 11.4932 5.92378 11.9543 7.22823 11.9543ZM5.25323 6.65018C5.4149 6.65018 5.55684 6.59185 5.67906 6.47518C5.80128 6.35852 5.8624 6.21407 5.8624 6.04185C5.8624 5.86963 5.80128 5.7249 5.67906 5.60768C5.55684 5.49046 5.4124 5.43213 5.24573 5.43268C5.07906 5.43324 4.9374 5.49157 4.82073 5.60768C4.70351 5.72379 4.6449 5.86824 4.6449 6.04102C4.6449 6.21379 4.70323 6.35824 4.8199 6.47435C4.93656 6.59046 5.08101 6.64963 5.25323 6.65018ZM7.23323 10.0602C7.77712 10.0602 8.27462 9.93407 8.72573 9.68185C9.17684 9.42963 9.54212 9.0974 9.82156 8.68518L4.62906 8.66852C4.90795 9.0924 5.27573 9.43018 5.7324 9.68185C6.18906 9.93407 6.6899 10.0602 7.23323 10.0602ZM9.2124 6.65018C9.37351 6.65018 9.51517 6.59185 9.6374 6.47518C9.75962 6.35852 9.82073 6.21407 9.82073 6.04185C9.82073 5.86963 9.75962 5.7249 9.6374 5.60768C9.51517 5.49046 9.37073 5.43213 9.20406 5.43268C9.0374 5.43324 8.89573 5.49157 8.77906 5.60768C8.6624 5.72379 8.60378 5.86824 8.60323 6.04102C8.60267 6.21379 8.66101 6.35824 8.77823 6.47435C8.89545 6.59046 9.0399 6.64879 9.21156 6.64935" fill="#B62026"/>
</svg>
