<svg width="24" height="24" viewBox="0 0 24 24" fill="none" xmlns="http://www.w3.org/2000/svg">
<path d="M5 9V6.8C5 6.36 5.36 6 5.8 6H22.2C22.64 6 23 6.36 23 6.8V15.2C23 15.64 22.64 16 22.2 16H20M2.8 9H19.2C19.4122 9 19.6157 9.08429 19.7657 9.23431C19.9157 9.38434 20 9.58783 20 9.8V18.2C20 18.4122 19.9157 18.6157 19.7657 18.7657C19.6157 18.9157 19.4122 19 19.2 19H2.8C2.58783 19 2.38434 18.9157 2.23431 18.7657C2.08429 18.6157 2 18.4122 2 18.2V9.8C2 9.58783 2.08429 9.38434 2.23431 9.23431C2.38434 9.08429 2.58783 9 2.8 9ZM12 14C12 14.2652 11.8946 14.5196 11.7071 14.7071C11.5196 14.8946 11.2652 15 11 15C10.7348 15 10.4804 14.8946 10.2929 14.7071C10.1054 14.5196 10 14.2652 10 14C10 13.7348 10.1054 13.4804 10.2929 13.2929C10.4804 13.1054 10.7348 13 11 13C11.2652 13 11.5196 13.1054 11.7071 13.2929C11.8946 13.4804 12 13.7348 12 14Z" stroke="#B62026" stroke-width="1.5" stroke-miterlimit="10" stroke-linejoin="round"/>
</svg>
