<svg width="24" height="24" viewBox="0 0 24 24" fill="none" xmlns="http://www.w3.org/2000/svg">
<path d="M12.0004 12L11.9944 12.006M12.4014 8.29796L15.3214 7.32496C16.2074 7.02896 16.6514 6.88196 16.8854 7.11496C17.1184 7.34896 16.9714 7.79196 16.6754 8.67896L15.7024 11.599C15.1994 13.109 14.9474 13.864 14.4054 14.405C13.8644 14.947 13.1094 15.199 11.5994 15.702L8.6794 16.675C7.7924 16.971 7.3494 17.119 7.1154 16.885C6.8814 16.651 7.0294 16.207 7.3254 15.321L8.2984 12.401C8.8014 10.891 9.0534 10.136 9.5954 9.59496C10.1364 9.05296 10.8914 8.80096 12.4014 8.29796Z" stroke="#BFBFBF" stroke-width="1.5" stroke-linecap="round" stroke-linejoin="round"/>
<path d="M2.5 12C2.5 7.522 2.5 5.282 3.891 3.891C5.282 2.5 7.521 2.5 12 2.5C16.478 2.5 18.718 2.5 20.109 3.891C21.5 5.282 21.5 7.521 21.5 12C21.5 16.478 21.5 18.718 20.109 20.109C18.718 21.5 16.479 21.5 12 21.5C7.522 21.5 5.282 21.5 3.891 20.109C2.5 18.718 2.5 16.479 2.5 12Z" stroke="#BFBFBF" stroke-width="1.5" stroke-linecap="round" stroke-linejoin="round"/>
</svg>
