<svg width="24" height="24" viewBox="0 0 24 24" fill="none" xmlns="http://www.w3.org/2000/svg">
<path d="M10.7943 2.99557C11.1366 2.72095 11.5623 2.57129 12.0011 2.57129C12.44 2.57129 12.8657 2.72095 13.208 2.99557L19.8508 8.32529C20.0761 8.506 20.2579 8.73498 20.3828 8.99534C20.5077 9.25571 20.5725 9.5408 20.5725 9.82957V19.4981C20.5725 20.0096 20.3694 20.5002 20.0077 20.8619C19.646 21.2235 19.1555 21.4267 18.644 21.4267H16.0725C15.5611 21.4267 15.0705 21.2235 14.7088 20.8619C14.3472 20.5002 14.144 20.0096 14.144 19.4981V14.3553C14.144 14.1848 14.0762 14.0213 13.9557 13.9007C13.8351 13.7802 13.6716 13.7124 13.5011 13.7124H10.5011C10.3306 13.7124 10.1671 13.7802 10.0465 13.9007C9.92599 14.0213 9.85826 14.1848 9.85826 14.3553V19.4981C9.85826 20.0096 9.65507 20.5002 9.29339 20.8619C8.93172 21.2235 8.44118 21.4267 7.92969 21.4267H5.35826C4.84692 21.4267 4.35651 21.2236 3.99486 20.8622C3.6332 20.5007 3.42991 20.0103 3.42969 19.499V9.83043C3.42969 9.24586 3.6954 8.69214 4.1514 8.32614L10.7943 2.99557ZM12.4031 3.99843C12.2891 3.90703 12.1473 3.85723 12.0011 3.85723C11.855 3.85723 11.7132 3.90703 11.5991 3.99843L4.95626 9.32814C4.88112 9.38835 4.82047 9.46467 4.77879 9.55146C4.7371 9.63825 4.71544 9.73329 4.7154 9.82957V19.4981C4.7154 19.8539 5.0034 20.141 5.35826 20.141H7.92969C8.10018 20.141 8.2637 20.0733 8.38426 19.9527C8.50481 19.8322 8.57254 19.6686 8.57254 19.4981V14.3553C8.57254 13.8438 8.77573 13.3533 9.13741 12.9916C9.49909 12.6299 9.98963 12.4267 10.5011 12.4267H13.5011C14.0126 12.4267 14.5031 12.6299 14.8648 12.9916C15.2265 13.3533 15.4297 13.8438 15.4297 14.3553V19.4981C15.4297 19.8539 15.7177 20.141 16.0725 20.141H18.644C18.8145 20.141 18.978 20.0733 19.0985 19.9527C19.2191 19.8322 19.2868 19.6686 19.2868 19.4981V9.82957C19.2869 9.73336 19.2654 9.63836 19.2238 9.55157C19.1823 9.46479 19.1218 9.38844 19.0468 9.32814L12.4031 3.99843Z" fill="#B62026"/>
</svg>
