<svg width="18" height="18" viewBox="0 0 18 18" fill="none" xmlns="http://www.w3.org/2000/svg">
<path d="M6 6.75H12M6 9.75H10.5M9.75 13.5L6 15.75V13.5H4.5C3.90326 13.5 3.33097 13.2629 2.90901 12.841C2.48705 12.419 2.25 11.8467 2.25 11.25V5.25C2.25 4.65326 2.48705 4.08097 2.90901 3.65901C3.33097 3.23705 3.90326 3 4.5 3H13.5C14.0967 3 14.669 3.23705 15.091 3.65901C15.5129 4.08097 15.75 4.65326 15.75 5.25V9.75M16.5 16.5L12.75 12.75M12.75 16.5L16.5 12.75" stroke="#B62026" stroke-width="2" stroke-linecap="round" stroke-linejoin="round"/>
</svg>
