<svg width="20" height="21" viewBox="0 0 20 21" fill="none" xmlns="http://www.w3.org/2000/svg">
<path d="M15.6251 8.59297V8.00547C15.6251 4.7813 13.1051 2.16797 10.0001 2.16797C6.89505 2.16797 4.37505 4.7813 4.37505 8.00547V8.59297C4.37605 9.29426 4.17592 9.98114 3.79839 10.5721L2.87505 12.0096C2.03255 13.3221 2.67588 15.1063 4.14172 15.5213C7.97196 16.606 12.0281 16.606 15.8584 15.5213C17.3242 15.1063 17.9676 13.3221 17.1251 12.0105L16.2017 10.573C15.8239 9.98206 15.6235 9.29518 15.6242 8.5938L15.6251 8.59297Z" stroke="#B62026" stroke-width="1.5"/>
<path opacity="0.5" d="M6.25 16.3359C6.79583 17.7926 8.26833 18.8359 10 18.8359C11.7317 18.8359 13.2042 17.7926 13.75 16.3359" stroke="#B62026" stroke-width="1.5" stroke-linecap="round"/>
</svg>
