<svg width="20" height="20" viewBox="0 0 20 20" fill="none" xmlns="http://www.w3.org/2000/svg">
<path d="M16.6667 10.0003V4.79116C16.6668 4.72538 16.6538 4.66024 16.6287 4.59946C16.6035 4.53869 16.5666 4.48348 16.52 4.43699L13.8967 1.81366C13.803 1.71986 13.6759 1.66711 13.5434 1.66699H3.83337C3.70077 1.66699 3.57359 1.71967 3.47982 1.81344C3.38605 1.90721 3.33337 2.03438 3.33337 2.16699V17.8337C3.33337 17.9663 3.38605 18.0934 3.47982 18.1872C3.57359 18.281 3.70077 18.3337 3.83337 18.3337H10.8334M6.66671 8.33366H13.3334M6.66671 5.00033H10M6.66671 11.667H9.16671" stroke="#B62026" stroke-width="1.5" stroke-linecap="round" stroke-linejoin="round"/>
<path d="M13.3334 1.66699V4.50033C13.3334 4.63293 13.3861 4.76011 13.4798 4.85388C13.5736 4.94765 13.7008 5.00033 13.8334 5.00033H16.6667M16.66 12.6045L18.79 13.1453C19.0117 13.202 19.1675 13.4037 19.1609 13.632C19.0175 18.4303 16.25 19.167 16.25 19.167C16.25 19.167 13.4825 18.4303 13.3392 13.632C13.3369 13.5209 13.3724 13.4123 13.4397 13.3239C13.507 13.2356 13.6023 13.1726 13.71 13.1453L15.84 12.6045C16.1092 12.5362 16.3909 12.5362 16.66 12.6045Z" stroke="#B62026" stroke-width="1.5" stroke-linecap="round" stroke-linejoin="round"/>
</svg>
