<svg width="20" height="20" viewBox="0 0 20 20" fill="none" xmlns="http://www.w3.org/2000/svg">
<path d="M3.33336 6.66697L2.7442 7.25613L2.15503 6.66697L2.7442 6.0778L3.33336 6.66697ZM7.50003 16.667C7.27902 16.667 7.06705 16.5792 6.91077 16.4229C6.75449 16.2666 6.6667 16.0546 6.6667 15.8336C6.6667 15.6126 6.75449 15.4007 6.91077 15.2444C7.06705 15.0881 7.27902 15.0003 7.50003 15.0003V16.667ZM6.91086 11.4228L2.7442 7.25613L3.92253 6.0778L8.0892 10.2445L6.91086 11.4228ZM2.7442 6.0778L6.91086 1.91113L8.0892 3.08947L3.92253 7.25613L2.7442 6.0778ZM3.33336 5.83363H12.0834V7.5003H3.33336V5.83363ZM12.0834 16.667H7.50003V15.0003H12.0834V16.667ZM17.5 11.2503C17.5 12.6869 16.9293 14.0646 15.9135 15.0805C14.8977 16.0963 13.52 16.667 12.0834 16.667V15.0003C12.5758 15.0003 13.0635 14.9033 13.5184 14.7148C13.9734 14.5264 14.3868 14.2502 14.735 13.9019C15.0832 13.5537 15.3595 13.1403 15.5479 12.6854C15.7364 12.2304 15.8334 11.7428 15.8334 11.2503H17.5ZM12.0834 5.83363C13.52 5.83363 14.8977 6.40431 15.9135 7.42014C16.9293 8.43596 17.5 9.81371 17.5 11.2503H15.8334C15.8334 10.7578 15.7364 10.2702 15.5479 9.81524C15.3595 9.36027 15.0832 8.94687 14.735 8.59865C14.3868 8.25043 13.9734 7.97421 13.5184 7.78575C13.0635 7.5973 12.5758 7.5003 12.0834 7.5003V5.83363Z" fill="#B62026"/>
</svg>
