<svg width="36" height="36" viewBox="0 0 36 36" fill="none" xmlns="http://www.w3.org/2000/svg">
<path d="M18.0006 32.6253C24.7828 30.2876 29.6166 24.8531 30.3756 17.9336C30.5856 14.9298 30.5676 11.9148 30.3216 8.91331C30.2893 8.44034 30.0818 7.99641 29.7396 7.66826C29.3975 7.34011 28.9452 7.15134 28.4713 7.13881C25.4031 7.04431 21.8368 6.53281 19.0813 3.81856C18.7936 3.53436 18.4054 3.375 18.001 3.375C17.5965 3.375 17.2083 3.53436 16.9206 3.81856C14.1643 6.53281 10.5981 7.04431 7.53058 7.13881C7.05653 7.15115 6.60413 7.33985 6.26182 7.66801C5.91951 7.99618 5.7119 8.44021 5.67958 8.91331C5.43355 11.9144 5.4155 14.9298 5.62558 17.9336C6.38308 24.8531 11.2183 30.2876 18.0006 32.6253Z" stroke="#B62026" stroke-linecap="round" stroke-linejoin="round"/>
<path d="M17.9977 18.3792C19.7784 18.3792 21.2219 16.9356 21.2219 15.1549C21.2219 13.3742 19.7784 11.9307 17.9977 11.9307C16.217 11.9307 14.7734 13.3742 14.7734 15.1549C14.7734 16.9356 16.217 18.3792 17.9977 18.3792Z" stroke="#B62026" stroke-linecap="round" stroke-linejoin="round"/>
<path d="M23.6921 24.0697C23.6921 22.5601 23.0924 21.1124 22.025 20.045C20.9576 18.9776 19.5099 18.3779 18.0003 18.3779C16.4908 18.3779 15.0431 18.9776 13.9757 20.045C12.9083 21.1124 12.3086 22.5601 12.3086 24.0697" stroke="#B62026" stroke-linecap="round" stroke-linejoin="round"/>
</svg>
