<svg width="18" height="18" viewBox="0 0 18 18" fill="none" xmlns="http://www.w3.org/2000/svg">
<path d="M14.9972 7.96575V14.25C14.9972 14.6478 14.8392 15.0294 14.5579 15.3107C14.2766 15.592 13.8951 15.75 13.4972 15.75H4.50325C4.10555 15.7498 3.72422 15.5917 3.44307 15.3104C3.16193 15.0291 3.004 14.6477 3.004 14.25V7.96575M5.62675 6.5625L6.00175 2.25M5.62675 6.5625C5.62675 8.739 9.00025 8.739 9.00025 6.5625M5.62675 6.5625C5.62675 8.9445 1.7605 8.4525 2.302 6.3765L3.08575 3.37125C3.16951 3.05027 3.35731 2.76611 3.61976 2.56323C3.88222 2.36035 4.20452 2.2502 4.53625 2.25H13.4642C13.796 2.2502 14.1183 2.36035 14.3807 2.56323C14.6432 2.76611 14.831 3.05027 14.9147 3.37125L15.6985 6.3765C16.24 8.45325 12.3737 8.9445 12.3737 6.5625M9.00025 6.5625V2.25M9.00025 6.5625C9.00025 8.739 12.3737 8.739 12.3737 6.5625M12.3737 6.5625L11.9987 2.25" stroke="#B62026" stroke-width="1.5" stroke-linecap="round" stroke-linejoin="round"/>
</svg>
