<svg width="36" height="36" viewBox="0 0 36 36" fill="none" xmlns="http://www.w3.org/2000/svg">
<path d="M22.4997 6H23.9997C24.3975 6 24.779 6.15804 25.0603 6.43934C25.3416 6.72064 25.4997 7.10218 25.4997 7.5V12.75M29.9997 9C30.3957 9.168 30.7797 9.3255 31.1517 9.4725C31.5178 9.62788 31.8073 9.92234 31.9564 10.2911C32.1055 10.6599 32.102 11.0728 31.9467 11.439L28.4997 19.5M5.40566 10.7955L16.1127 6.132C16.2893 6.05627 16.4794 6.01669 16.6716 6.01557C16.8638 6.01446 17.0543 6.05184 17.2319 6.12551C17.4094 6.19919 17.5704 6.30766 17.7054 6.44454C17.8403 6.58142 17.9465 6.74393 18.0177 6.9225L25.4037 24.7755C25.5572 25.1375 25.5624 25.5454 25.4182 25.9112C25.274 26.277 24.9919 26.5716 24.6327 26.7315L13.9272 31.395C13.7504 31.471 13.5602 31.5107 13.3678 31.512C13.1754 31.5132 12.9848 31.4759 12.807 31.4022C12.6293 31.3285 12.4682 31.22 12.3331 31.0829C12.1981 30.9459 12.0918 30.7833 12.0207 30.6045L4.63466 12.75C4.48114 12.388 4.47592 11.9801 4.62012 11.6143C4.76432 11.2485 5.04642 10.9554 5.40566 10.7955Z" stroke="#B91F13" stroke-linecap="round" stroke-linejoin="round"/>
</svg>
