<svg width="18" height="18" viewBox="0 0 18 18" fill="none" xmlns="http://www.w3.org/2000/svg">
<path d="M9 16.875C4.6575 16.875 1.125 13.3425 1.125 9C1.125 4.6575 4.6575 1.125 9 1.125C13.3425 1.125 16.875 4.6575 16.875 9C16.875 13.3425 13.3425 16.875 9 16.875ZM9 2.25C5.27625 2.25 2.25 5.27625 2.25 9C2.25 12.7238 5.27625 15.75 9 15.75C12.7238 15.75 15.75 12.7238 15.75 9C15.75 5.27625 12.7238 2.25 9 2.25Z" fill="#B62026"/>
<path d="M11.25 11.8125C11.1488 11.8125 11.0475 11.79 10.9575 11.7338L8.14501 10.0463C8.06209 9.99577 7.99364 9.92469 7.94633 9.83992C7.89901 9.75515 7.87444 9.65958 7.87501 9.5625V5.0625C7.87501 4.7475 8.12251 4.5 8.43751 4.5C8.75251 4.5 9.00001 4.7475 9.00001 5.0625V9.2475L11.5425 10.7662C11.6472 10.8304 11.7282 10.927 11.7731 11.0413C11.818 11.1557 11.8244 11.2815 11.7913 11.3998C11.7582 11.5181 11.6875 11.6224 11.5898 11.6969C11.4921 11.7713 11.3728 11.8119 11.25 11.8125Z" fill="#B62026"/>
</svg>
