<svg width="20" height="20" viewBox="0 0 20 20" fill="none" xmlns="http://www.w3.org/2000/svg">
<path d="M11.6654 11.8773V13.619C10.9111 13.3523 10.1039 13.2705 9.31153 13.3805C8.51914 13.4904 7.7647 13.7889 7.11156 14.2508C6.45842 14.7128 5.92565 15.3247 5.558 16.0352C5.19035 16.7457 4.99855 17.534 4.9987 18.334H3.33203C3.33165 17.3163 3.56425 16.3121 4.01201 15.3982C4.45977 14.4843 5.1108 13.6851 5.91522 13.0618C6.71963 12.4384 7.65608 12.0075 8.65279 11.8021C9.6495 11.5966 10.68 11.6229 11.6654 11.8773ZM9.9987 10.834C7.2362 10.834 4.9987 8.59648 4.9987 5.83398C4.9987 3.07148 7.2362 0.833984 9.9987 0.833984C12.7612 0.833984 14.9987 3.07148 14.9987 5.83398C14.9987 8.59648 12.7612 10.834 9.9987 10.834ZM9.9987 9.16732C11.8404 9.16732 13.332 7.67565 13.332 5.83398C13.332 3.99232 11.8404 2.50065 9.9987 2.50065C8.15703 2.50065 6.66536 3.99232 6.66536 5.83398C6.66536 7.67565 8.15703 9.16732 9.9987 9.16732ZM14.9987 14.1673V11.6673H16.6654V14.1673H19.1654V15.834H16.6654V18.334H14.9987V15.834H12.4987V14.1673H14.9987Z" fill="#B62026"/>
</svg>
